<svg width="81" height="81" viewBox="0 0 81 81" fill="none" xmlns="http://www.w3.org/2000/svg">
<rect width="81" height="81" rx="6" fill="#C4C4C4"/>
<g clip-path="url(#clip0)">
<path d="M19.4979 63.8349L17.218 63.8334L17.2228 56.7817L21.3994 56.7845L21.3982 58.477L19.5016 58.4757L19.5009 59.4427L21.201 59.4439L21.1999 61.1363L19.4998 61.1352L19.4979 63.8349Z" fill="#808080"/>
<path d="M24.728 59.1548C24.4264 59.4703 24.2754 59.8631 24.2751 60.3331C24.2748 60.8033 24.4268 61.1963 24.7313 61.5121C25.0357 61.8281 25.4106 61.986 25.8562 61.9863C26.3016 61.9867 26.6768 61.8291 26.9817 61.5136C27.2865 61.1983 27.4391 60.8054 27.4394 60.3353C27.4398 59.8652 27.2877 59.4723 26.9833 59.1563C26.6788 58.8405 26.3039 58.6824 25.8584 58.6821C25.4128 58.6818 25.0361 58.8395 24.728 59.1548ZM23.1924 62.9415C22.459 62.2494 22.0928 61.3794 22.0935 60.3317C22.0942 59.284 22.4616 58.4146 23.1959 57.7233C23.9301 57.0321 24.8115 56.6868 25.8401 56.6875C26.8686 56.6882 27.7496 57.0348 28.4829 57.7269C29.216 58.4192 29.5824 59.2891 29.5818 60.3368C29.5811 61.3845 29.2135 62.254 28.4794 62.9451C27.7451 63.6364 26.8637 63.9816 25.8351 63.9809C24.8065 63.9802 23.9256 63.6337 23.1924 62.9415Z" fill="#808080"/>
<path d="M32.8842 59.1548C32.5826 59.4703 32.4317 59.8631 32.4314 60.3331C32.431 60.8033 32.5831 61.1963 32.8875 61.5121C33.1919 61.828 33.5668 61.986 34.0124 61.9863C34.4579 61.9866 34.8331 61.8291 35.1379 61.5136C35.4428 61.1982 35.5953 60.8054 35.5957 60.3353C35.596 59.8652 35.444 59.4722 35.1395 59.1563C34.8351 58.8405 34.4601 58.6824 34.0147 58.6821C33.5691 58.6817 33.1923 58.8394 32.8842 59.1548ZM31.3486 62.9415C30.6152 62.2493 30.249 61.3793 30.2498 60.3316C30.2505 59.284 30.6179 58.4146 31.3521 57.7233C32.0863 57.0321 32.9677 56.6867 33.9963 56.6875C35.0248 56.6881 35.9058 57.0348 36.6391 57.7269C37.3723 58.4192 37.7387 59.2891 37.738 60.3367C37.7373 61.3845 37.3697 62.254 36.6356 62.9451C35.9013 63.6363 35.0199 63.9816 33.9914 63.9809C32.9627 63.9801 32.0818 63.6337 31.3486 62.9415Z" fill="#808080"/>
<path d="M40.8749 58.8237L40.8729 61.8861L40.9712 61.8862C41.4036 61.8865 41.7393 61.7558 41.9786 61.494C42.218 61.2323 42.3378 60.8531 42.3381 60.356C42.3385 59.8591 42.2191 59.4795 41.9802 59.2174C41.7412 58.9554 41.4056 58.8241 40.9732 58.8238L40.8749 58.8237ZM40.901 63.8809L38.6407 63.8792L38.6455 56.8276L40.9057 56.8292C41.9604 56.8298 42.8349 57.1546 43.529 57.8032C44.2229 58.4517 44.5695 59.3032 44.5688 60.3575C44.5681 61.4119 44.2203 62.263 43.5255 62.9105C42.8305 63.5581 41.9556 63.8815 40.901 63.8809Z" fill="#808080"/>
<path d="M50.339 63.9839L47.7175 60.8391L47.7153 63.8613L45.4846 63.8597L45.4894 56.9188L46.708 56.688L49.3297 59.8328L49.3318 56.8107L51.5625 56.8122L51.5578 63.7531L50.339 63.9839Z" fill="#808080"/>
<path d="M57.0554 62.1902L57.0542 63.8827L52.75 63.8798L52.7548 56.8281L56.9803 56.831L56.9792 58.5234L55.0335 58.5221L55.0329 59.4388L56.7821 59.44L56.7809 61.1323L55.0317 61.1311L55.031 62.1889L57.0554 62.1902Z" fill="#808080"/>
<path d="M57.7657 58.8228L57.7671 56.8281L62.8183 56.8316L62.8169 58.8262L61.4312 58.8252L61.4278 63.8823L59.1479 63.8806L59.1513 58.8236L57.7657 58.8228Z" fill="#808080"/>
<path d="M31.4318 32.9892C30.9081 33.047 30.5611 33.3546 30.3576 33.819C30.0284 34.5705 30.119 35.307 30.5067 36.0104C30.868 36.6658 31.4353 37.0883 32.1182 37.3666C33.0191 37.7337 33.9524 37.7745 34.9009 37.6281C36.0659 37.4483 37.1675 37.076 38.2009 36.5084C38.8624 36.1451 39.4737 35.7144 39.9589 35.1264C40.0746 34.9862 40.1745 34.8331 40.2833 34.6837C40.2959 34.6902 40.3088 34.6948 40.3193 34.7025C40.8078 35.0608 41.3625 35.2697 41.9475 35.3944C43.6544 35.7584 45.3419 35.6609 47.0044 35.1403C47.7344 34.9117 48.3827 34.5347 48.9263 33.992C49.5483 33.3709 49.9234 32.6374 49.8814 31.7374C49.8482 31.0266 49.5825 30.4163 49.0165 29.9642C48.5173 29.5654 47.9156 29.5343 47.4187 29.8732C47.1584 30.0507 46.9764 30.2871 46.9621 30.6163C46.958 30.7117 46.9882 30.8086 47.0026 30.9047C47.0143 30.904 47.026 30.9032 47.0376 30.9025C47.0495 30.8724 47.0601 30.8417 47.0735 30.8122C47.2177 30.4942 47.4712 30.3232 47.8127 30.3037C48.1321 30.2854 48.3846 30.4174 48.5478 30.7038C48.8346 31.2072 48.6974 31.7846 48.2012 32.1013C47.7804 32.3699 47.3124 32.4851 46.8154 32.4707C46.3536 32.4574 45.9193 32.3191 45.5003 32.1377C44.921 31.887 44.3514 31.6141 43.7708 31.3667C43.0767 31.0711 42.3587 30.8863 41.593 30.9535C40.8133 31.0218 40.2165 31.3761 39.8253 32.0615C39.809 32.0901 39.7912 32.118 39.7687 32.1551C39.7369 32.1308 39.7182 32.1165 39.6994 32.1021C39.6778 32.0857 39.6565 32.0688 39.6345 32.0529C39.1175 31.6797 38.5504 31.5407 37.9202 31.6762C37.3786 31.7927 36.8995 32.0374 36.4607 32.3683C35.9673 32.7404 35.5532 33.1946 35.1406 33.6501C34.7737 34.055 34.4118 34.4649 33.9817 34.8065C33.3974 35.2707 32.7382 35.4794 31.9949 35.3692C31.4655 35.2907 31.1468 34.9278 31.11 34.3947C31.0843 34.0212 31.2605 33.7197 31.5897 33.5742C31.9065 33.4341 32.2929 33.5118 32.5376 33.7644C32.5541 33.7813 32.5734 33.7956 32.6054 33.8234C32.6074 33.5804 32.5151 33.4019 32.3519 33.2605C32.0875 33.0315 31.7732 32.9515 31.4318 32.9892Z" fill="#808080"/>
<path d="M57.96 39.4844C57.1034 42.3753 55.5187 45.0318 53.359 47.19C49.9071 50.6419 45.3176 52.5431 40.4364 52.5431C35.556 52.5431 30.9673 50.6419 27.5154 47.19C27.0596 46.7349 26.6248 46.2528 26.2185 45.7514C26.2634 45.7538 26.3083 45.7553 26.3524 45.7576C26.9861 45.7816 27.647 45.794 28.3156 45.794C28.7164 45.794 29.152 45.7886 29.648 45.7778C30.3979 45.76 31.1809 45.7267 31.9787 45.6795C34.4417 47.5111 37.3652 48.4784 40.4364 48.4784C42.9296 48.4784 45.3841 47.8206 47.5345 46.5748C49.5998 45.3792 51.3448 43.6707 52.5851 41.6317C53.3195 41.381 54.0307 41.1233 54.7 40.8649C55.5148 40.5531 56.2987 40.2303 57.0291 39.9077C57.341 39.77 57.6528 39.6283 57.96 39.4844Z" fill="#808080"/>
<path d="M58.8254 31.8174L58.5584 32.0387L58.5104 31.6959C58.4934 31.5767 58.4764 31.4576 58.4578 31.3392L58.4555 31.3237C58.3541 30.6969 58.2179 30.0662 58.0508 29.4503C57.9386 29.0394 57.8094 28.6231 57.6662 28.2137L57.5416 27.8593L57.9022 27.9638C58.44 28.1193 58.9484 28.2996 59.4151 28.4993C60.3088 28.8831 60.3049 29.5934 60.3033 29.8271C60.3033 29.8442 60.3026 29.8581 60.3033 29.8689V29.8712C60.3529 30.1792 59.9134 30.9159 58.8254 31.8174ZM22.5223 39.2405C20.5282 38.7329 19.711 38.0682 19.6492 37.7447L19.6484 37.744C19.5865 37.4135 20.6009 36.2845 21.8646 35.2794L22.1555 35.048L22.178 35.4195C22.1965 35.7266 22.2229 36.0292 22.2546 36.317C22.3327 37.0282 22.4542 37.7416 22.6167 38.4388C22.6569 38.6152 22.7026 38.7994 22.7568 39.0029L22.8411 39.321L22.5223 39.2405ZM63.9263 29.171C63.7127 28.0528 62.908 27.2651 61.2366 26.5369C60.1532 26.0649 58.5484 25.7314 56.5945 25.5727L56.4908 25.5642L56.4405 25.4729C56.316 25.2478 56.196 25.0396 56.0737 24.8376C55.9391 24.6148 55.8006 24.3966 55.6621 24.1892C55.4532 23.8734 55.2311 23.5608 55.0005 23.2583C54.5935 22.7205 54.1485 22.1974 53.678 21.7014C53.572 21.5892 53.4614 21.4755 53.3383 21.3524C49.888 17.9013 45.2985 16 40.4166 16C35.5354 16 30.9459 17.9013 27.494 21.3524C25.7166 23.1298 24.3501 25.1998 23.4323 27.5042C23.1808 28.1356 22.9633 28.7856 22.7854 29.4371C22.6732 29.8496 22.5749 30.2667 22.4937 30.6783C22.4534 30.8818 22.4155 31.0908 22.3823 31.2981C22.3335 31.5945 22.2909 31.911 22.2546 32.2375L22.2429 32.3443L22.147 32.3907C20.9198 32.9843 19.7907 33.618 18.9667 34.1736C16.68 35.7174 15.839 37.4662 16.0246 38.4373C16.2274 39.5051 16.9849 41.004 19.4371 42.0866C20.9492 42.7536 22.9633 43.2109 25.4225 43.4469L25.4334 43.4476C26.1445 43.5157 26.8897 43.5653 27.648 43.5947C28.2508 43.6187 28.8845 43.6303 29.5314 43.6303C29.94 43.6303 30.3718 43.6248 30.816 43.6148C31.5302 43.5978 32.2452 43.5676 32.9416 43.5266L33.0406 43.5212L33.1033 43.5978C33.6318 44.2462 34.4296 44.5008 35.5423 44.3754C37.1673 44.1921 38.7923 43.9444 40.3067 43.7038C40.4785 43.6767 40.6092 43.6372 40.6897 43.5328C40.8638 43.306 40.8096 43.1528 40.7439 43.0453C40.6232 42.8464 40.4529 42.7807 40.1767 42.824C38.6654 43.0654 37.1241 43.2829 35.5958 43.4701C35.3412 43.5018 35.1222 43.4855 34.945 43.4229C34.904 43.4074 34.8723 43.3935 34.8436 43.3788C34.6277 43.2728 34.4877 43.0793 34.4436 42.8216C34.3987 42.5647 34.4668 42.3372 34.6393 42.1639C34.6672 42.136 34.6919 42.1136 34.7183 42.0943C34.8753 41.9697 35.1013 41.8846 35.3837 41.8459C35.6631 41.808 35.9417 41.7724 36.2202 41.736C36.5266 41.6965 36.8339 41.657 37.1403 41.6145C38.0216 41.4915 38.9672 41.3553 39.9097 41.1974C40.0397 41.1758 40.213 41.1239 40.3013 40.9993C40.357 40.9204 40.374 40.816 40.3524 40.6868C40.3206 40.5049 40.2254 40.2696 39.7642 40.3308C39.7016 40.3385 39.6389 40.3509 39.5723 40.3633C39.5189 40.3726 39.4663 40.3826 39.4122 40.3911C37.8274 40.6411 36.4392 40.8361 35.1686 40.9885C34.8901 41.0218 34.6324 40.9676 34.4428 40.8361C34.4188 40.8207 34.3902 40.7981 34.3646 40.7757C34.2168 40.6457 34.131 40.4662 34.1185 40.2596C34.1085 40.0878 34.1363 39.9361 34.2006 39.8077C34.2145 39.7806 34.2284 39.7558 34.2439 39.7326C34.37 39.5345 34.5991 39.4045 34.921 39.3496C35.0185 39.3341 35.1144 39.3233 35.2081 39.3132C35.2506 39.3086 35.2932 39.3039 35.3358 39.2993C36.9298 39.0958 38.246 38.9062 39.4756 38.7034C39.6683 38.6717 39.8153 38.5928 39.8896 38.4821C39.9461 38.397 39.9608 38.2941 39.9329 38.1757C39.8857 37.9768 39.7758 37.7571 39.3471 37.8268C38.4658 37.9691 37.5666 38.096 36.6969 38.2198C35.9881 38.3204 35.2553 38.4241 34.5356 38.5355C33.5916 38.6818 33.0283 39.0478 32.7087 39.7218L32.7033 39.7326L32.6599 39.8518L32.5338 39.8564C31.6316 39.9067 30.7417 39.9346 29.8905 39.94C29.4742 39.9431 29.0424 39.9408 28.5696 39.9315C28.2036 39.9238 27.8391 39.9114 27.4855 39.8943L27.364 39.8881L27.3168 39.776C27.2727 39.6715 27.2286 39.567 27.1868 39.461C27.1241 39.3009 27.0622 39.1345 27.0034 38.9666C26.9291 38.7561 26.8571 38.5324 26.7883 38.3011L26.724 38.0829L26.731 38.0821C26.6188 37.6813 26.5244 37.2735 26.4494 36.8664C26.2923 36.0199 26.2126 35.1478 26.2126 34.2742C26.2126 34.008 26.2203 33.741 26.2342 33.4764L26.218 33.4903L26.2613 33.0299C26.2768 32.8581 26.2923 32.7041 26.3101 32.5602C26.5422 30.6334 27.1582 28.8041 28.1409 27.1235C28.5827 26.3667 29.0997 25.6455 29.6769 24.98C32.3821 21.8562 36.2968 20.0648 40.4166 20.0648C42.6954 20.0648 44.9619 20.6196 46.9707 21.6689C47.743 22.0713 48.4842 22.5503 49.1745 23.0919C50.7043 24.2921 51.9532 25.7631 52.8857 27.4647C53.1619 27.9692 53.4095 28.4947 53.6216 29.0254C54.1965 30.4679 54.5284 31.9892 54.6074 33.546C54.619 33.7766 54.6244 34.0049 54.6252 34.2262C54.6259 34.2324 54.6259 34.2378 54.6259 34.244V34.3663L54.516 34.4251C54.1462 34.6015 53.7732 34.7733 53.4064 34.9343C52.8114 35.1958 52.1807 35.4558 51.53 35.7073C51.0401 35.8976 50.5201 36.0895 49.9847 36.2776L49.8725 36.3178L49.7858 36.2342C49.3014 35.7653 48.6467 35.6268 47.7847 35.8133C45.8928 36.2226 44.2515 37.1705 42.9074 38.6323C42.6838 38.8752 42.5066 39.1569 42.3813 39.4695C42.1112 40.1389 42.2427 40.6566 42.7952 41.0999C43.0188 41.2795 43.22 41.4032 43.4096 41.4775C45.4935 42.2924 47.5836 42.3303 49.6241 41.5913C50.2083 41.3801 50.9195 40.9274 50.9875 39.9733C50.9875 39.9679 50.9883 39.9624 50.9883 39.957L50.9983 39.8309L51.1175 39.7891C51.6785 39.5926 52.2186 39.3945 52.7231 39.201C53.483 38.9101 54.2367 38.6005 54.9618 38.281C55.6907 37.9598 56.3871 37.6294 57.0325 37.2982C57.236 37.1945 57.438 37.0885 57.6314 36.9841C59.5458 35.9541 61.0501 34.8902 62.1009 33.8215C63.3583 32.544 63.996 31.2262 63.996 29.9045C63.996 29.6592 63.9728 29.4124 63.9263 29.171Z" fill="#808080"/>
<path d="M32.634 29.1962C32.9134 29.1962 33.1763 29.0273 33.2821 28.7504C33.3417 28.6278 33.8236 28.189 34.8492 27.8593C35.8709 27.5309 36.5174 27.6048 36.6408 27.6695C36.9614 27.8788 37.3914 27.7899 37.6026 27.47C37.8145 27.149 37.7261 26.717 37.4051 26.5051C36.5255 25.9244 34.9001 26.3799 34.4228 26.5333C33.9456 26.6867 32.3593 27.2638 31.9831 28.2482C31.8458 28.6075 32.0247 29.0125 32.384 29.1498C32.4663 29.1813 32.5509 29.1963 32.634 29.1962Z" fill="#808080"/>
<path d="M39.9934 27.2376C40.2124 27.2375 40.4276 27.1342 40.5625 26.9404C40.6498 26.8358 41.2232 26.5258 42.298 26.4525C43.3687 26.3795 43.9784 26.6068 44.0826 26.6993C44.3435 26.9797 44.7822 26.9968 45.0641 26.737C45.3471 26.4765 45.3652 26.036 45.1046 25.753C44.3907 24.9778 42.7033 25.0287 42.2032 25.0629C41.7031 25.097 40.0246 25.2755 39.4226 26.1404C39.2028 26.4561 39.279 26.8922 39.5947 27.1119C39.7165 27.1968 39.8557 27.2376 39.9934 27.2376Z" fill="#808080"/>
</g>
<defs>
<clipPath id="clip0">
<rect width="48" height="48" fill="white" transform="translate(16 16)"/>
</clipPath>
</defs>
</svg>
