<svg width="42" height="42" viewBox="0 0 42 42" fill="none" xmlns="http://www.w3.org/2000/svg">
<path d="M21 0C9.39925 0 0 9.39925 0 21C0 32.6007 9.39925 42 21 42C32.6007 42 42 32.6007 42 21C42 20.153 41.9388 19.32 41.8355 18.4905C41.1112 18.9872 40.2532 19.252 39.375 19.25C38.4808 19.2481 37.6087 18.9719 36.8764 18.4587C36.1441 17.9454 35.5869 17.2199 35.28 16.38C34.153 17.1071 32.8412 17.4958 31.5 17.5C27.6325 17.5 24.5 14.3675 24.5 10.5C24.5 9.2155 24.8675 8.0255 25.4783 6.986C25.4444 6.99406 25.4098 6.99875 25.375 7C24.8003 7.00069 24.2311 6.888 23.6999 6.66838C23.1688 6.44876 22.6863 6.12653 22.2799 5.72013C21.8735 5.31374 21.5512 4.83117 21.3316 4.30006C21.112 3.76895 20.9993 3.19973 21 2.625C21 1.64675 21.329 0.7595 21.868 0.035C21.581 0.021 21.294 0 21 0ZM34.125 0C33.7803 -7.26443e-09 33.4389 0.0678974 33.1205 0.199816C32.802 0.331735 32.5126 0.525091 32.2688 0.768844C32.0251 1.0126 31.8317 1.30198 31.6998 1.62046C31.5679 1.93894 31.5 2.28028 31.5 2.625C31.5 2.96972 31.5679 3.31106 31.6998 3.62954C31.8317 3.94802 32.0251 4.2374 32.2688 4.48116C32.5126 4.72491 32.802 4.91827 33.1205 5.05018C33.4389 5.1821 33.7803 5.25 34.125 5.25C34.8212 5.25 35.4889 4.97344 35.9812 4.48116C36.4734 3.98887 36.75 3.32119 36.75 2.625C36.75 1.92881 36.4734 1.26113 35.9812 0.768844C35.4889 0.276561 34.8212 1.46712e-08 34.125 0ZM17.5875 3.829C17.7605 4.9231 18.1609 5.9688 18.7628 6.89868C19.3648 7.82855 20.1549 8.62196 21.0823 9.22775C21.0274 9.64961 20.9999 10.0746 21 10.5C21 16.2908 25.7092 21 31.5 21C32.368 21 33.236 20.8898 34.0708 20.671C35.2751 21.7798 36.794 22.4872 38.4177 22.6957C37.5637 31.5525 30.079 38.5 21 38.5C11.347 38.5 3.5 30.653 3.5 21C3.5 12.516 9.57075 5.4215 17.5875 3.82725V3.829ZM31.5 8.75C30.5375 8.75 29.75 9.5375 29.75 10.5C29.75 11.4625 30.5375 12.25 31.5 12.25C32.4625 12.25 33.25 11.4625 33.25 10.5C33.25 9.5375 32.4625 8.75 31.5 8.75ZM17.5 10.5C16.5375 10.5 15.75 11.2875 15.75 12.25C15.75 13.2125 16.5375 14 17.5 14C18.4625 14 19.25 13.2125 19.25 12.25C19.25 11.2875 18.4625 10.5 17.5 10.5ZM40.25 10.5C39.2875 10.5 38.5 11.2875 38.5 12.25C38.5 13.2125 39.2875 14 40.25 14C41.2125 14 42 13.2125 42 12.25C42 11.2875 41.2125 10.5 40.25 10.5ZM12.25 15.75C11.3217 15.75 10.4315 16.1187 9.77513 16.7751C9.11875 17.4315 8.75 18.3217 8.75 19.25C8.75 20.1783 9.11875 21.0685 9.77513 21.7249C10.4315 22.3813 11.3217 22.75 12.25 22.75C13.1783 22.75 14.0685 22.3813 14.7249 21.7249C15.3813 21.0685 15.75 20.1783 15.75 19.25C15.75 18.3217 15.3813 17.4315 14.7249 16.7751C14.0685 16.1187 13.1783 15.75 12.25 15.75ZM21 19.25C20.0375 19.25 19.25 20.0375 19.25 21C19.25 21.9625 20.0375 22.75 21 22.75C21.9625 22.75 22.75 21.9625 22.75 21C22.75 20.0375 21.9625 19.25 21 19.25ZM14.875 26.25C14.1788 26.25 13.5111 26.5266 13.0188 27.0188C12.5266 27.5111 12.25 28.1788 12.25 28.875C12.25 29.5712 12.5266 30.2389 13.0188 30.7312C13.5111 31.2234 14.1788 31.5 14.875 31.5C15.5712 31.5 16.2389 31.2234 16.7312 30.7312C17.2234 30.2389 17.5 29.5712 17.5 28.875C17.5 28.1788 17.2234 27.5111 16.7312 27.0188C16.2389 26.5266 15.5712 26.25 14.875 26.25ZM27.125 28C26.4288 28 25.7611 28.2766 25.2688 28.7688C24.7766 29.2611 24.5 29.9288 24.5 30.625C24.5 31.3212 24.7766 31.9889 25.2688 32.4812C25.7611 32.9734 26.4288 33.25 27.125 33.25C27.8212 33.25 28.4889 32.9734 28.9812 32.4812C29.4734 31.9889 29.75 31.3212 29.75 30.625C29.75 29.9288 29.4734 29.2611 28.9812 28.7688C28.4889 28.2766 27.8212 28 27.125 28Z" fill="#999999"/>
</svg>
