<svg width="48" height="48" viewBox="0 0 48 48" fill="none" xmlns="http://www.w3.org/2000/svg">
<circle cx="24" cy="24" r="24" fill="#FEEBD6"/>
<path d="M32.121 29.8969C31.6789 28.8496 31.0373 27.8984 30.232 27.0961C29.4291 26.2915 28.478 25.65 27.4312 25.207C27.4218 25.2023 27.4124 25.2 27.4031 25.1953C28.8632 24.1406 29.8124 22.4227 29.8124 20.4844C29.8124 17.2734 27.2109 14.6719 23.9999 14.6719C20.789 14.6719 18.1874 17.2734 18.1874 20.4844C18.1874 22.4227 19.1367 24.1406 20.5968 25.1977C20.5874 25.2023 20.5781 25.2047 20.5687 25.2094C19.5187 25.6523 18.5765 26.2875 17.7679 27.0984C16.9633 27.9013 16.3218 28.8524 15.8788 29.8992C15.4437 30.924 15.209 32.0228 15.1874 33.1359C15.1868 33.161 15.1912 33.1858 15.2003 33.2091C15.2095 33.2324 15.2232 33.2537 15.2407 33.2716C15.2581 33.2895 15.279 33.3037 15.3021 33.3134C15.3251 33.3231 15.3499 33.3281 15.3749 33.3281H16.7812C16.8843 33.3281 16.9663 33.2461 16.9687 33.1453C17.0156 31.3359 17.7421 29.6414 19.0265 28.357C20.3554 27.0281 22.1202 26.2969 23.9999 26.2969C25.8796 26.2969 27.6445 27.0281 28.9734 28.357C30.2578 29.6414 30.9843 31.3359 31.0312 33.1453C31.0335 33.2484 31.1156 33.3281 31.2187 33.3281H32.6249C32.65 33.3281 32.6747 33.3231 32.6978 33.3134C32.7208 33.3037 32.7417 33.2895 32.7592 33.2716C32.7767 33.2537 32.7904 33.2324 32.7995 33.2091C32.8087 33.1858 32.8131 33.161 32.8124 33.1359C32.789 32.0156 32.557 30.9258 32.121 29.8969ZM23.9999 24.5156C22.9242 24.5156 21.9117 24.0961 21.1499 23.3344C20.3882 22.5727 19.9687 21.5602 19.9687 20.4844C19.9687 19.4086 20.3882 18.3961 21.1499 17.6344C21.9117 16.8727 22.9242 16.4531 23.9999 16.4531C25.0757 16.4531 26.0882 16.8727 26.8499 17.6344C27.6117 18.3961 28.0312 19.4086 28.0312 20.4844C28.0312 21.5602 27.6117 22.5727 26.8499 23.3344C26.0882 24.0961 25.0757 24.5156 23.9999 24.5156Z" fill="#F78F1E"/>
</svg>
