<svg width="48" height="48" viewBox="0 0 48 48" fill="none" xmlns="http://www.w3.org/2000/svg">
<g clip-path="url(#clip0)">
<path d="M3.49793 47.8349L1.21802 47.8334L1.22282 40.7817L5.39935 40.7845L5.3982 42.477L3.50158 42.4757L3.50091 43.4427L5.20103 43.4439L5.19988 45.1363L3.49976 45.1352L3.49793 47.8349Z" fill="#F78F1E"/>
<path d="M8.72797 43.1548C8.42636 43.4703 8.27541 43.8631 8.27513 44.3331C8.27479 44.8033 8.42684 45.1963 8.73128 45.5121C9.03572 45.8281 9.41057 45.986 9.85617 45.9863C10.3016 45.9867 10.6768 45.8291 10.9817 45.5136C11.2865 45.1983 11.4391 44.8054 11.4394 44.3353C11.4398 43.8652 11.2877 43.4723 10.9833 43.1563C10.6788 42.8405 10.3039 42.6824 9.85838 42.6821C9.41283 42.6818 9.03606 42.8395 8.72797 43.1548ZM7.19238 46.9415C6.459 46.2494 6.09279 45.3794 6.09351 44.3317C6.09423 43.284 6.46164 42.4146 7.19588 41.7233C7.93008 41.0321 8.81148 40.6868 9.84009 40.6875C10.8686 40.6882 11.7496 41.0348 12.4829 41.7269C13.216 42.4192 13.5824 43.2891 13.5818 44.3368C13.5811 45.3845 13.2135 46.254 12.4794 46.9451C11.7451 47.6364 10.8637 47.9816 9.83515 47.9809C8.80654 47.9802 7.92557 47.6337 7.19238 46.9415Z" fill="#F78F1E"/>
<path d="M16.8842 43.1548C16.5826 43.4703 16.4317 43.8631 16.4314 44.3331C16.431 44.8033 16.5831 45.1963 16.8875 45.5121C17.1919 45.828 17.5668 45.986 18.0124 45.9863C18.4579 45.9866 18.8331 45.8291 19.1379 45.5136C19.4428 45.1982 19.5953 44.8054 19.5957 44.3353C19.596 43.8652 19.444 43.4722 19.1395 43.1563C18.8351 42.8405 18.4601 42.6824 18.0147 42.6821C17.5691 42.6817 17.1923 42.8394 16.8842 43.1548ZM15.3486 46.9415C14.6152 46.2493 14.249 45.3793 14.2498 44.3316C14.2505 43.284 14.6179 42.4146 15.3521 41.7233C16.0863 41.0321 16.9677 40.6867 17.9963 40.6875C19.0248 40.6881 19.9058 41.0348 20.6391 41.7269C21.3723 42.4192 21.7387 43.2891 21.738 44.3367C21.7373 45.3845 21.3697 46.254 20.6356 46.9451C19.9013 47.6363 19.0199 47.9816 17.9914 47.9809C16.9627 47.9801 16.0818 47.6337 15.3486 46.9415Z" fill="#F78F1E"/>
<path d="M24.8749 42.8239L24.8729 45.8864L24.9712 45.8865C25.4036 45.8868 25.7393 45.7561 25.9786 45.4943C26.218 45.2325 26.3378 44.8533 26.3381 44.3562C26.3385 43.8593 26.2191 43.4797 25.9802 43.2176C25.7412 42.9556 25.4056 42.8243 24.9732 42.824L24.8749 42.8239ZM24.901 47.8811L22.6407 47.8795L22.6455 40.8279L24.9057 40.8295C25.9604 40.8301 26.8349 41.1548 27.529 41.8034C28.2229 42.452 28.5695 43.3035 28.5688 44.3577C28.5681 45.4122 28.2203 46.2632 27.5255 46.9108C26.8305 47.5584 25.9556 47.8817 24.901 47.8811Z" fill="#F78F1E"/>
<path d="M34.339 47.9836L31.7175 44.8389L31.7153 47.861L29.4846 47.8594L29.4894 40.9186L30.708 40.6877L33.3297 43.8326L33.3318 40.8104L35.5625 40.812L35.5578 47.7528L34.339 47.9836Z" fill="#F78F1E"/>
<path d="M41.0554 46.1902L41.0542 47.8827L36.75 47.8798L36.7548 40.8281L40.9803 40.831L40.9792 42.5234L39.0335 42.5221L39.0329 43.4388L40.7821 43.44L40.7809 45.1323L39.0317 45.1311L39.031 46.1889L41.0554 46.1902Z" fill="#F78F1E"/>
<path d="M41.7657 42.8228L41.7671 40.8281L46.8183 40.8316L46.8169 42.8262L45.4312 42.8252L45.4278 47.8823L43.1479 47.8806L43.1513 42.8236L41.7657 42.8228Z" fill="#F78F1E"/>
<path d="M15.4318 16.9892C14.9081 17.047 14.5611 17.3546 14.3576 17.819C14.0284 18.5705 14.119 19.307 14.5067 20.0104C14.868 20.6658 15.4353 21.0883 16.1182 21.3666C17.0191 21.7337 17.9524 21.7745 18.9009 21.6281C20.0659 21.4483 21.1675 21.076 22.2009 20.5084C22.8624 20.1451 23.4737 19.7144 23.9589 19.1264C24.0746 18.9862 24.1745 18.8331 24.2833 18.6837C24.2959 18.6902 24.3088 18.6948 24.3193 18.7025C24.8078 19.0608 25.3625 19.2697 25.9475 19.3944C27.6544 19.7584 29.3419 19.6609 31.0044 19.1403C31.7344 18.9117 32.3827 18.5347 32.9263 17.992C33.5483 17.3709 33.9234 16.6374 33.8814 15.7374C33.8482 15.0266 33.5825 14.4163 33.0165 13.9642C32.5173 13.5654 31.9156 13.5343 31.4187 13.8732C31.1584 14.0507 30.9764 14.2871 30.9621 14.6163C30.958 14.7117 30.9882 14.8086 31.0026 14.9047C31.0143 14.904 31.026 14.9032 31.0376 14.9025C31.0495 14.8724 31.0601 14.8417 31.0735 14.8122C31.2177 14.4942 31.4712 14.3232 31.8127 14.3037C32.1321 14.2854 32.3846 14.4174 32.5478 14.7038C32.8346 15.2072 32.6974 15.7846 32.2012 16.1013C31.7804 16.3699 31.3124 16.4851 30.8154 16.4707C30.3536 16.4574 29.9193 16.3191 29.5003 16.1377C28.921 15.887 28.3514 15.6141 27.7708 15.3667C27.0767 15.0711 26.3587 14.8863 25.593 14.9535C24.8133 15.0218 24.2165 15.3761 23.8253 16.0615C23.809 16.0901 23.7912 16.118 23.7687 16.1551C23.7369 16.1308 23.7182 16.1165 23.6994 16.1021C23.6778 16.0857 23.6565 16.0688 23.6345 16.0529C23.1175 15.6797 22.5504 15.5407 21.9202 15.6762C21.3786 15.7927 20.8995 16.0374 20.4607 16.3683C19.9673 16.7404 19.5532 17.1946 19.1406 17.6501C18.7737 18.055 18.4118 18.4649 17.9817 18.8065C17.3974 19.2707 16.7382 19.4794 15.9949 19.3692C15.4655 19.2907 15.1468 18.9278 15.11 18.3947C15.0843 18.0212 15.2605 17.7197 15.5897 17.5742C15.9065 17.4341 16.2929 17.5118 16.5376 17.7644C16.5541 17.7813 16.5734 17.7956 16.6054 17.8234C16.6074 17.5804 16.5151 17.4019 16.3519 17.2605C16.0875 17.0315 15.7732 16.9515 15.4318 16.9892Z" fill="#F78F1E"/>
<path d="M41.96 23.4846C41.1034 26.3756 39.5187 29.0321 37.359 31.1902C33.9071 34.6421 29.3176 36.5434 24.4364 36.5434C19.556 36.5434 14.9673 34.6421 11.5154 31.1902C11.0596 30.7352 10.6248 30.2531 10.2185 29.7517C10.2634 29.754 10.3083 29.7556 10.3524 29.7579C10.9861 29.7819 11.647 29.7942 12.3156 29.7942C12.7164 29.7942 13.152 29.7889 13.648 29.778C14.3979 29.7602 15.1809 29.7269 15.9787 29.6797C18.4417 31.5113 21.3652 32.4786 24.4364 32.4786C26.9296 32.4786 29.3841 31.8208 31.5345 30.575C33.5998 29.3795 35.3448 27.6709 36.5851 25.632C37.3195 25.3812 38.0307 25.1235 38.7 24.8651C39.5148 24.5533 40.2987 24.2306 41.0291 23.9079C41.341 23.7702 41.6528 23.6286 41.96 23.4846Z" fill="#F78F1E"/>
<path d="M42.8254 15.8174L42.5584 16.0387L42.5104 15.6959C42.4934 15.5767 42.4764 15.4576 42.4578 15.3392L42.4555 15.3237C42.3541 14.6969 42.2179 14.0662 42.0508 13.4503C41.9386 13.0394 41.8094 12.6231 41.6662 12.2137L41.5416 11.8593L41.9022 11.9638C42.44 12.1193 42.9484 12.2996 43.4151 12.4993C44.3088 12.8831 44.3049 13.5934 44.3033 13.8271C44.3033 13.8442 44.3026 13.8581 44.3033 13.8689V13.8712C44.3529 14.1792 43.9134 14.9159 42.8254 15.8174ZM6.52231 23.2405C4.52821 22.7329 3.71103 22.0682 3.64916 21.7447L3.64839 21.744C3.58648 21.4135 4.60093 20.2845 5.86457 19.2794L6.15552 19.048L6.17798 19.4195C6.19646 19.7266 6.22286 20.0292 6.25459 20.317C6.33272 21.0282 6.4542 21.7416 6.61672 22.4388C6.65694 22.6152 6.70258 22.7994 6.75677 23.0029L6.8411 23.321L6.52231 23.2405ZM47.9263 13.171C47.7127 12.0528 46.908 11.2651 45.2366 10.5369C44.1532 10.0649 42.5484 9.73137 40.5945 9.57275L40.4908 9.56425L40.4405 9.47291C40.316 9.24776 40.196 9.0396 40.0737 8.83764C39.9391 8.61479 39.8006 8.39655 39.6621 8.18921C39.4532 7.87344 39.2311 7.56084 39.0005 7.25832C38.5935 6.72048 38.1485 6.19741 37.678 5.70142C37.572 5.58921 37.4614 5.47545 37.3383 5.35244C33.888 1.90127 29.2985 0 24.4166 0C19.5354 0 14.9459 1.90127 11.494 5.35244C9.7166 7.12984 8.35005 9.19977 7.43227 11.5042C7.18082 12.1356 6.96335 12.7856 6.78538 13.4371C6.67321 13.8496 6.57491 14.2667 6.49366 14.6783C6.45343 14.8818 6.41552 15.0908 6.38226 15.2981C6.33349 15.5945 6.29092 15.911 6.25459 16.2375L6.24292 16.3443L6.14703 16.3907C4.91976 16.9843 3.79075 17.618 2.96665 18.1736C0.68002 19.7174 -0.161017 21.4662 0.0246319 22.4373C0.227368 23.5051 0.98494 25.004 3.43711 26.0866C4.94919 26.7536 6.96335 27.2109 9.42253 27.4469L9.43337 27.4476C10.1445 27.5157 10.8897 27.5653 11.648 27.5947C12.2508 27.6187 12.8845 27.6303 13.5314 27.6303C13.94 27.6303 14.3718 27.6248 14.816 27.6148C15.5302 27.5978 16.2452 27.5676 16.9416 27.5266L17.0406 27.5212L17.1033 27.5978C17.6318 28.2462 18.4296 28.5008 19.5423 28.3754C21.1673 28.1921 22.7923 27.9444 24.3067 27.7038C24.4785 27.6767 24.6092 27.6372 24.6897 27.5328C24.8638 27.306 24.8096 27.1528 24.7439 27.0453C24.6232 26.8464 24.4529 26.7807 24.1767 26.824C22.6654 27.0654 21.1241 27.2829 19.5958 27.4701C19.3412 27.5018 19.1222 27.4855 18.945 27.4229C18.904 27.4074 18.8723 27.3935 18.8436 27.3788C18.6277 27.2728 18.4877 27.0793 18.4436 26.8216C18.3987 26.5647 18.4668 26.3372 18.6393 26.1639C18.6672 26.136 18.6919 26.1136 18.7183 26.0943C18.8753 25.9697 19.1013 25.8846 19.3837 25.8459C19.6631 25.808 19.9417 25.7724 20.2202 25.736C20.5266 25.6965 20.8339 25.657 21.1403 25.6145C22.0216 25.4915 22.9672 25.3553 23.9097 25.1974C24.0397 25.1758 24.213 25.1239 24.3013 24.9993C24.357 24.9204 24.374 24.816 24.3524 24.6868C24.3206 24.5049 24.2254 24.2696 23.7642 24.3308C23.7016 24.3385 23.6389 24.3509 23.5723 24.3633C23.5189 24.3726 23.4663 24.3826 23.4122 24.3911C21.8274 24.6411 20.4392 24.8361 19.1686 24.9885C18.8901 25.0218 18.6324 24.9676 18.4428 24.8361C18.4188 24.8207 18.3902 24.7981 18.3646 24.7757C18.2168 24.6457 18.131 24.4662 18.1185 24.2596C18.1085 24.0878 18.1363 23.9361 18.2006 23.8077C18.2145 23.7806 18.2284 23.7558 18.2439 23.7326C18.37 23.5345 18.5991 23.4045 18.921 23.3496C19.0185 23.3341 19.1144 23.3233 19.2081 23.3132C19.2506 23.3086 19.2932 23.3039 19.3358 23.2993C20.9298 23.0958 22.246 22.9062 23.4756 22.7034C23.6683 22.6717 23.8153 22.5928 23.8896 22.4821C23.9461 22.397 23.9608 22.2941 23.9329 22.1757C23.8857 21.9768 23.7758 21.7571 23.3471 21.8268C22.4658 21.9691 21.5666 22.096 20.6969 22.2198C19.9881 22.3204 19.2553 22.4241 18.5356 22.5355C17.5916 22.6818 17.0283 23.0478 16.7087 23.7218L16.7033 23.7326L16.6599 23.8518L16.5338 23.8564C15.6316 23.9067 14.7417 23.9346 13.8905 23.94C13.4742 23.9431 13.0424 23.9408 12.5696 23.9315C12.2036 23.9238 11.8391 23.9114 11.4855 23.8943L11.364 23.8881L11.3168 23.776C11.2727 23.6715 11.2286 23.567 11.1868 23.461C11.1241 23.3009 11.0622 23.1345 11.0034 22.9666C10.9291 22.7561 10.8571 22.5324 10.7883 22.3011L10.724 22.0829L10.731 22.0821C10.6188 21.6813 10.5244 21.2735 10.4494 20.8664C10.2923 20.0199 10.2126 19.1478 10.2126 18.2742C10.2126 18.008 10.2203 17.741 10.2342 17.4764L10.218 17.4903L10.2613 17.0299C10.2768 16.8581 10.2923 16.7041 10.3101 16.5602C10.5422 14.6334 11.1582 12.8041 12.1409 11.1235C12.5827 10.3667 13.0997 9.64546 13.6769 8.98004C16.3821 5.85616 20.2968 4.0648 24.4166 4.0648C26.6954 4.0648 28.9619 4.61963 30.9707 5.66888C31.743 6.07128 32.4842 6.55028 33.1745 7.09192C34.7043 8.29211 35.9532 9.7631 36.8857 11.4647C37.1619 11.9692 37.4095 12.4947 37.6216 13.0254C38.1965 14.4679 38.5284 15.9892 38.6074 17.546C38.619 17.7766 38.6244 18.0049 38.6252 18.2262C38.6259 18.2324 38.6259 18.2378 38.6259 18.244V18.3663L38.516 18.4251C38.1462 18.6015 37.7732 18.7733 37.4064 18.9343C36.8114 19.1958 36.1807 19.4558 35.53 19.7073C35.0401 19.8976 34.5201 20.0895 33.9847 20.2776L33.8725 20.3178L33.7858 20.2342C33.3014 19.7653 32.6467 19.6268 31.7847 19.8133C29.8928 20.2226 28.2515 21.1705 26.9074 22.6323C26.6838 22.8752 26.5066 23.1569 26.3813 23.4695C26.1112 24.1389 26.2427 24.6566 26.7952 25.0999C27.0188 25.2795 27.22 25.4032 27.4096 25.4775C29.4935 26.2924 31.5836 26.3303 33.6241 25.5913C34.2083 25.3801 34.9195 24.9274 34.9875 23.9733C34.9875 23.9679 34.9883 23.9624 34.9883 23.957L34.9983 23.8309L35.1175 23.7891C35.6785 23.5926 36.2186 23.3945 36.7231 23.201C37.483 22.9101 38.2367 22.6005 38.9618 22.281C39.6907 21.9598 40.3871 21.6294 41.0325 21.2982C41.236 21.1945 41.438 21.0885 41.6314 20.9841C43.5458 19.9541 45.0501 18.8902 46.1009 17.8215C47.3583 16.544 47.996 15.2262 47.996 13.9045C47.996 13.6592 47.9728 13.4124 47.9263 13.171Z" fill="#F78F1E"/>
<path d="M16.634 13.1965C16.9134 13.1965 17.1763 13.0275 17.2821 12.7506C17.3417 12.6281 17.8236 12.1893 18.8492 11.8596C19.8709 11.5311 20.5174 11.605 20.6408 11.6697C20.9614 11.879 21.3914 11.7901 21.6026 11.4702C21.8145 11.1492 21.7261 10.7172 21.4051 10.5053C20.5255 9.9246 18.9001 10.3801 18.4228 10.5335C17.9456 10.687 16.3593 11.264 15.9831 12.2485C15.8458 12.6077 16.0247 13.0128 16.384 13.1501C16.4663 13.1815 16.5509 13.1965 16.634 13.1965Z" fill="#F78F1E"/>
<path d="M23.9934 11.2378C24.2124 11.2378 24.4276 11.1345 24.5625 10.9406C24.6498 10.836 25.2232 10.5261 26.298 10.4527C27.3687 10.3797 27.9784 10.607 28.0826 10.6995C28.3435 10.9799 28.7822 10.997 29.0641 10.7373C29.3471 10.4768 29.3652 10.0362 29.1046 9.75327C28.3907 8.97804 26.7033 9.02896 26.2032 9.06313C25.7031 9.09721 24.0246 9.27571 23.4226 10.1406C23.2028 10.4563 23.279 10.8925 23.5947 11.1122C23.7165 11.197 23.8557 11.2378 23.9934 11.2378Z" fill="#F78F1E"/>
</g>
<defs>
<clipPath id="clip0">
<rect width="48" height="48" fill="white"/>
</clipPath>
</defs>
</svg>
